<svg>
    <defs>
        <svg id="arrow-right" fill="none" viewBox="0 0 24 24">
            <path stroke="#000" stroke-linecap="round" stroke-linejoin="round" stroke-width="1.5" d="M4 12h16l-6 6m3-9-3-3"/>
        </svg>
        <svg id="arrow-small-down" fill="none" viewBox="0 0 24 24">
            <path stroke="#000" stroke-linecap="round" stroke-linejoin="round" stroke-width="1.5" d="M12 7v10l4-4m-6 2-2-2"/>
        </svg>
        <svg id="arrow-small-right" fill="none" viewBox="0 0 24 24">
            <path stroke="#000" stroke-linecap="round" stroke-linejoin="round" stroke-width="1.5" d="M7 12h10l-4 4m2-6-2-2"/>
        </svg>
        <svg id="arrow-small-up" fill="none" viewBox="0 0 24 24">
            <path stroke="#000" stroke-linecap="round" stroke-linejoin="round" stroke-width="1.5" d="M12 17V7l4 4m-6-2-2 2"/>
        </svg>
        <svg id="at-email" fill="none" viewBox="0 0 24 24">
            <path stroke="#000" stroke-linecap="round" stroke-linejoin="round" stroke-width="1.5" d="M15.857 12a3.857 3.857 0 1 1-7.714 0 3.857 3.857 0 0 1 7.714 0m0 0v1.286a2.571 2.571 0 0 0 5.143 0V12a8.98 8.98 0 0 0-3-6.708M12 3a9 9 0 1 0 5.143 16.387"/>
        </svg>
        <svg id="calendar" fill="none" viewBox="0 0 24 24">
            <path stroke="#000" stroke-linecap="round" stroke-width="1.5" d="M15 11H4m2-6a2 2 0 0 0-2 2v12a2 2 0 0 0 2 2h12a2 2 0 0 0 2-2V7a2 2 0 0 0-2-2h-3m0-2v4M9 3v4m0-2h3"/>
        </svg>
        <svg id="calendar-clock" fill="none" viewBox="0 0 24 24">
            <path stroke="#000" stroke-linecap="round" stroke-linejoin="round" stroke-width="1.5" d="M16 15.2v1.688l.9 1.012M9 11H4m5-8v4m6-4v4M9 5h3m3 0h3a2 2 0 0 1 2 2v2M6 5a2 2 0 0 0-2 2v12a2 2 0 0 0 2 2h3m11.5-4a4.5 4.5 0 1 1-9 0 4.5 4.5 0 0 1 9 0"/>
        </svg>
        <svg id="calendar-link" fill="none" viewBox="0 0 24 24">
            <path stroke="#000" stroke-linecap="round" stroke-linejoin="round" stroke-width="1.5" d="M17 21h1a2 2 0 1 0 0-4h-1m-3 0h-1a2 2 0 1 0 0 4h1m0-2h3m-8-8H4m5-8v4m6-4v4M9 5h3m3 0h3a2 2 0 0 1 2 2v2M6 5a2 2 0 0 0-2 2v12a2 2 0 0 0 2 2h3"/>
        </svg>
        <svg id="calendar-plus" fill="none" viewBox="0 0 24 24">
            <path stroke="#000" stroke-linecap="round" stroke-linejoin="round" stroke-width="1.5" d="M13 17h8m-4 4v-8m-7-2H4m5-8v4m6-4v4M9 5h3m3 0h3a2 2 0 0 1 2 2v2M6 5a2 2 0 0 0-2 2v12a2 2 0 0 0 2 2h3"/>
        </svg>
        <svg id="check" fill="none" viewBox="0 0 24 24">
            <path stroke="#000" stroke-linecap="round" stroke-linejoin="round" stroke-width="1.5" d="m20 7-8.5 8.5M4 13l5 5"/>
        </svg>
        <svg id="chevron-down" fill="none" viewBox="0 0 24 24">
            <path stroke="#000" stroke-linecap="round" stroke-linejoin="round" stroke-width="1.5" d="M9 14 4 9m16 0-8 8"/>
        </svg>
        <svg id="chevron-left" fill="none" viewBox="0 0 24 24">
            <path stroke="#000" stroke-linecap="round" stroke-linejoin="round" stroke-width="1.5" d="m10 9 5-5m0 16-8-8"/>
        </svg>
        <svg id="chevron-right" fill="none" viewBox="0 0 24 24">
            <path stroke="#000" stroke-linecap="round" stroke-linejoin="round" stroke-width="1.5" d="M14 9 9 4m0 16 8-8"/>
        </svg>
        <svg id="chevron-up" fill="none" viewBox="0 0 24 24">
            <path stroke="#000" stroke-linecap="round" stroke-linejoin="round" stroke-width="1.5" d="m9 10-5 5m16 0-8-8"/>
        </svg>
        <svg id="circle" fill="none" viewBox="0 0 24 24">
            <path stroke="#000" stroke-linecap="round" stroke-width="1.5" d="M21 12a9 9 0 1 1-2-5.657"/>
        </svg>
        <svg id="clock" fill="none" viewBox="0 0 24 24">
            <path stroke="#000" stroke-linecap="round" stroke-linejoin="round" stroke-width="1.5" d="M12 8v4l2 2M12 3a9 9 0 1 0 7.5 4.023"/>
        </svg>
        <svg id="copy" fill="none" viewBox="0 0 24 24">
            <path stroke="#000" stroke-linecap="round" stroke-linejoin="round" stroke-width="1.5" d="M10 6.5V5a2 2 0 0 1 2-2h7a2 2 0 0 1 2 2m-3.5 9H19a2 2 0 0 0 2-2V8.5M3 19a2 2 0 0 0 2 2h7a2 2 0 0 0 2-2v-7a2 2 0 0 0-2-2H5a2 2 0 0 0-2 2v2"/>
        </svg>
        <svg id="cross" fill="none" viewBox="0 0 24 24">
            <path stroke="#000" stroke-linecap="round" stroke-linejoin="round" stroke-width="1.5" d="M19 5 5 19M5 5l4.5 4.5M12 12l7 7"/>
        </svg>
        <svg id="cross-circle" fill="none" viewBox="0 0 24 24">
            <path stroke="#000" stroke-linecap="round" stroke-linejoin="round" stroke-width="1.5" d="m16 8-8 8m4-4 4 4M8 8l2 2m11 2a9 9 0 1 1-18 0 9 9 0 0 1 18 0"/>
        </svg>
        <svg id="document-check" fill="none" viewBox="0 0 24 24">
            <path stroke="#000" stroke-linecap="round" stroke-linejoin="round" stroke-width="1.5" d="m15 12-4.2 4L9 14.286M13 3H5v2m8-2h1l5 5v1m-6-6v4c0 1 1 2 2 2h4m0 0v3M5 10v11h14v-5"/>
        </svg>
        <svg id="document-cross" fill="none" viewBox="0 0 24 24">
            <path stroke="#000" stroke-linecap="round" stroke-linejoin="round" stroke-width="1.5" d="M14.5 11.5 12 14m0 0-2.5 2.5M12 14l-2.5-2.5M12 14l2.5 2.5M13 3H5v2m8-2h1l5 5v1m-6-6v4c0 1 1 2 2 2h4m0 0v3M5 10v11h14v-5"/>
        </svg>
        <svg id="emote-normal" fill="none" viewBox="0 0 24 24">
            <path stroke="#000" stroke-linecap="round" stroke-linejoin="round" stroke-width="1.5" d="M3 12a9 9 0 1 0 2.292-6M8 15h8m-1-6h.01M9 9h.01"/>
        </svg>
        <svg id="eye-closed" fill="none" viewBox="0 0 24 24">
            <path stroke="#000" stroke-linecap="round" stroke-linejoin="round" stroke-width="1.5" d="M22 12s-.692 1.332-2 2.834M10 5.236A8.7 8.7 0 0 1 12 5c2.878 0 5.198 1.432 6.876 3M12 9a2.995 2.995 0 0 1 3 3M3 3l18 18m-9-6a3 3 0 0 1-2.959-2.5M4.147 9a17 17 0 0 0-.828 1C2.453 11.128 2 12 2 12s3.636 7 10 7q.512 0 1-.058"/>
        </svg>
        <svg id="eye-open" fill="none" viewBox="0 0 24 24">
            <path stroke="#000" stroke-linecap="round" stroke-linejoin="round" stroke-width="1.5" d="M22 12s-3.636 7-10 7-10-7-10-7 3.636-7 10-7c2.878 0 5.198 1.432 6.876 3M9 12a3 3 0 1 0 3-3"/>
        </svg>
        <svg id="flag" fill="none" viewBox="0 0 24 24">
            <path stroke="#000" stroke-linecap="round" stroke-linejoin="round" stroke-width="1.5" d="M4 21.111v-5s3-2.5 8 0 8 0 8 0v-12s-3 2.5-8 0-8 0-8 0M4 12V4.125"/>
        </svg>
        <svg id="globe" fill="none" viewBox="0 0 24 24">
            <path stroke="#000" stroke-linecap="round" stroke-width="1.5" d="M21 12a9 9 0 0 1-9 9m9-9a9 9 0 0 0-9-9m9 9H3a9 9 0 0 0 9 9m0 0s4-3 4-9m-4 9s-4-3-4-9 4-9 4-9m0 0a8.98 8.98 0 0 0-6.708 3M12 3s2.222 1.667 3.354 5"/>
        </svg>
        <svg xml:space="preserve" id="google" viewBox="0 0 210 210">
            <path d="M0 105C0 47.103 47.103 0 105 0c23.383 0 45.515 7.523 64.004 21.756l-24.4 31.696C133.172 44.652 119.477 40 105 40c-35.841 0-65 29.159-65 65s29.159 65 65 65c28.867 0 53.398-18.913 61.852-45H105V85h105v20c0 57.897-47.103 105-105 105S0 162.897 0 105"/>
        </svg>
        <svg id="hamburger" fill="none" viewBox="0 0 24 24">
            <path stroke="#000" stroke-linecap="round" stroke-linejoin="round" stroke-width="1.5" d="M4 17h4m4 0h8M4 12h16M4 7h8m4 0h4"/>
        </svg>
        <svg id="home" fill="none" viewBox="0 0 24 24">
            <path stroke="#000" stroke-linecap="round" stroke-linejoin="round" stroke-width="1.5" d="M15 16a3 3 0 0 0-6 0v4H4V10l4-3.5M12 3l8 7v10h-5"/>
        </svg>
        <svg id="home-2" fill="none" viewBox="0 0 24 24">
            <path stroke="#000" stroke-linecap="round" stroke-linejoin="round" stroke-width="1.5" d="M19 10v10H9m-4 0V10l7-7 3.5 3.5"/>
        </svg>
        <svg id="hourglass" fill="none" viewBox="0 0 24 24">
            <path stroke="#000" stroke-linecap="round" stroke-linejoin="round" stroke-width="1.5" d="M17 17.106a2 2 0 0 0-.336-1.11L14.74 13.11a2 2 0 0 1 0-2.218l1.924-2.887A2 2 0 0 0 17 6.894V4m0 0h2m-2 0H5m2 2.894a2 2 0 0 0 .336 1.11L9.26 10.89a2 2 0 0 1 0 2.218l-1.924 2.887A2 2 0 0 0 7 17.106V20m0 0H5m2 0h12"/>
        </svg>
        <svg id="info-circle" fill="none" viewBox="0 0 24 24">
            <path stroke="#000" stroke-linecap="round" stroke-linejoin="round" stroke-width="1.5" d="M12 7.01V7m0 10v-7m9 2a9 9 0 1 1-18 0 9 9 0 0 1 18 0"/>
        </svg>
        <svg id="lines" fill="none" viewBox="0 0 24 24">
            <path stroke="#000" stroke-linecap="round" stroke-linejoin="round" stroke-width="1.5" d="M17 20.5h3.5v-7h-17v7H12m-6-17H3.5v7h17v-7H11"/>
        </svg>
        <svg id="link" fill="none" viewBox="0 0 24 24">
            <path stroke="#000" stroke-linecap="round" stroke-linejoin="round" stroke-width="1.5" d="M15 16h2a4 4 0 0 0 0-8h-2m-7 4h8M9 8H7c-.729 0-1.412.195-2 .535M3 12a4 4 0 0 0 4 4h2"/>
        </svg>
        <svg id="lock" fill="none" viewBox="0 0 24 24">
            <path stroke="#000" stroke-linecap="round" stroke-linejoin="round" stroke-width="1.5" d="M8 11V7c0-1.333.8-4 4-4s4 2.667 4 4v4m-8 0H5v10h7M8 11h8m0 0h3v10h-2"/>
        </svg>
        <svg id="lock-off" fill="none" viewBox="0 0 24 24">
            <path stroke="#000" stroke-linecap="round" stroke-linejoin="round" stroke-width="1.5" d="M8 11V7c0-1.333.8-4 4-4 1.91 0 2.965.95 3.505 2M8 11H5v10h7M8 11h11v10h-2"/>
        </svg>
        <svg id="login" fill="none" viewBox="0 0 24 24">
            <path stroke="#000" stroke-linecap="round" stroke-linejoin="round" stroke-width="1.5" d="M15 20h3a2 2 0 0 0 2-2M15 4h3a2 2 0 0 1 2 2v8m-9 2 4-4H3m8-4 1 1"/>
        </svg>
        <svg id="logout" fill="none" viewBox="0 0 24 24">
            <path stroke="#000" stroke-linecap="round" stroke-linejoin="round" stroke-width="1.5" d="M15 20h3a2 2 0 0 0 2-2M15 4h3a2 2 0 0 1 2 2v8M7 8l-4 4h12m-8 4-1-1"/>
        </svg>
        <svg id="mail" fill="none" viewBox="0 0 24 24">
            <path stroke="#000" stroke-linecap="round" stroke-linejoin="round" stroke-width="1.5" d="M3.293 5.293A1 1 0 0 1 4 5h16c.276 0 .526.112.707.293m-17.414 0A1 1 0 0 0 3 6v12a1 1 0 0 0 1 1h10M3.293 5.293 5 7m15.707-1.707A1 1 0 0 1 21 6v12a1 1 0 0 1-1 1h-2m2.707-13.707-7.293 7.293a2 2 0 0 1-2.828 0L8 10"/>
        </svg>
        <svg id="minus" fill="none" viewBox="0 0 24 24">
            <path stroke="#000" stroke-linecap="round" stroke-linejoin="round" stroke-width="1.5" d="M20 12h-5m-3 0H4"/>
        </svg>
        <svg id="pause" fill="none" viewBox="0 0 24 24">
            <path stroke="#000" stroke-linecap="round" stroke-linejoin="round" stroke-width="1.5" d="M15 16v2m0-12v6M9 6v12"/>
        </svg>
        <svg id="pencil" fill="none" viewBox="0 0 24 24">
            <path stroke="#000" stroke-linecap="round" stroke-linejoin="round" stroke-width="1.5" d="M12 20h8.5M18 10l-4-4m4 4 3-3-4-4-3 3m4 4-1 1m-3-5-6.5 6.5M5 15l-1 1v4h4l6-6"/>
        </svg>
        <svg id="piles" fill="none" viewBox="0 0 24 24">
            <path stroke="#000" stroke-linecap="round" stroke-linejoin="round" stroke-width="1.5" d="M5 13.5H3.5v7h7v-7H9M13.5 5V3.5h7v7h-7V9m-10-5.5h7v7h-7zm10 10h7v7h-7z"/>
        </svg>
        <svg id="play" fill="none" viewBox="0 0 24 24">
            <path stroke="#000" stroke-linecap="round" stroke-linejoin="round" stroke-width="1.5" d="M8 18V6l10 6-6.667 4"/>
        </svg>
        <svg id="plus" fill="none" viewBox="0 0 24 24">
            <path stroke="#000" stroke-linecap="round" stroke-linejoin="round" stroke-width="1.5" d="M4 12h5m3 0h8m-8-8v16"/>
        </svg>
        <svg id="plus-small" fill="none" viewBox="0 0 24 24">
            <path stroke="#000" stroke-linecap="round" stroke-linejoin="round" stroke-width="1.5" d="M12 7v10m0-5h5M7 12h2.5"/>
        </svg>
        <svg id="question" fill="none" viewBox="0 0 24 24">
            <path stroke="#000" stroke-linecap="round" stroke-linejoin="round" stroke-width="1.5" d="M12 19v-.01M8.126 8A4.002 4.002 0 0 1 14 5.535M12 16c0-4.5 4-3.5 4-7q-.002-.519-.126-1"/>
        </svg>
        <svg id="question-circle" fill="none" viewBox="0 0 24 24">
            <path stroke="#000" stroke-linecap="round" stroke-linejoin="round" stroke-width="1.5" d="M12 17v-.007M9.137 9C9.52 7.84 10.657 7 12 7c.35 0 .687.057 1 .163m-1 7.694c0-3.214 3-2.5 3-5q-.002-.449-.138-.857M21 12a9 9 0 1 1-18 0 9 9 0 0 1 18 0"/>
        </svg>
        <svg id="redo" fill="none" viewBox="0 0 24 24">
            <path stroke="#000" stroke-linecap="round" stroke-linejoin="round" stroke-width="1.5" d="M20 9v6m0 0h-6m6 0c-2.327-2.089-4.483-4.453-7.745-4.912a9 9 0 0 0-9.469 5.234"/>
        </svg>
        <svg id="refresh" fill="none" viewBox="0 0 24 24">
            <path stroke="#000" stroke-linecap="round" stroke-linejoin="round" stroke-width="1.5" d="M3 3v6m0 0h6M3 9c2.327-2.089 4.483-4.453 7.745-4.912a9 9 0 0 1 9.469 5.234M21 21v-6m0 0h-6m6 0c-2.328 2.089-4.483 4.453-7.745 4.912a9 9 0 0 1-9.469-5.234"/>
        </svg>
        <svg id="rotate-left" fill="none" viewBox="0 0 24 24">
            <path stroke="#000" stroke-linecap="round" stroke-linejoin="round" stroke-width="1.5" d="M3.51 14.99a9 9 0 1 0 7.235-11.902C7.483 3.547 5.327 5.91 3 8m0 0V2m0 6h6"/>
        </svg>
        <svg id="rotate-right" fill="none" viewBox="0 0 24 24">
            <path stroke="#000" stroke-linecap="round" stroke-linejoin="round" stroke-width="1.5" d="M20.49 14.99a9 9 0 1 1-7.235-11.902C16.517 3.547 18.672 5.91 21 8m0 0V2m0 6h-6"/>
        </svg>
        <svg id="save" fill="none" viewBox="0 0 24 24">
            <path stroke="#000" stroke-linecap="round" stroke-linejoin="round" stroke-width="1.5" d="M4 13v5a2 2 0 0 0 2 2h12a2 2 0 0 0 2-2v-2M4 8V6a2 2 0 0 1 2-2h8.172a2 2 0 0 1 1.414.586l3.828 3.828A2 2 0 0 1 20 9.828V12m-5 8v-5H9v5"/>
        </svg>
        <svg id="search" fill="none" viewBox="0 0 24 24">
            <path stroke="#000" stroke-linecap="round" stroke-linejoin="round" stroke-width="1.5" d="m20 20-4.197-4.197S14 18 10.5 18a7.5 7.5 0 1 1 7.35-6"/>
        </svg>
        <svg id="share" fill="none" viewBox="0 0 24 24">
            <path stroke="#000" stroke-width="1.5" d="M8.684 10.658 13 8.5m2.316 8.158L11 14.5M21 6a3 3 0 1 1-6 0 3 3 0 0 1 6 0ZM9 12a3 3 0 1 1-6 0 3 3 0 0 1 6 0Zm12 6a3 3 0 1 1-6 0 3 3 0 0 1 6 0Z"/>
        </svg>
        <svg id="shield" fill="none" viewBox="0 0 24 24">
            <path stroke="#000" stroke-linecap="round" stroke-linejoin="round" stroke-width="1.5" d="M15.5 9.5 11 14l-1.5-1.5M12 3l8 4c0 5.193-2.784 12.51-8 14-5.216-1.49-8-8.807-8-14l4-2"/>
        </svg>
        <svg id="stopwatch" fill="none" viewBox="0 0 24 24">
            <path stroke="#000" stroke-linecap="round" stroke-linejoin="round" stroke-width="1.5" d="M10 3h4m-2 6v4l2 2m-2 6a8 8 0 1 0-5.292-2"/>
        </svg>
        <svg id="trash" fill="none" viewBox="0 0 24 24">
            <path stroke="#000" stroke-linecap="round" stroke-linejoin="round" stroke-width="1.5" d="M10 10v6m4-6v6M4 6h16m-5 0V5a2 2 0 0 0-2-2h-2a2 2 0 0 0-2 2v1m9 0v8m0 4a2 2 0 0 1-2 2H8a2 2 0 0 1-2-2v-5m0-4V6"/>
        </svg>
        <svg id="trending-down" fill="none" viewBox="0 0 24 24">
            <path stroke="#000" stroke-linecap="round" stroke-linejoin="round" stroke-width="1.5" d="m3 7 6 6 4-4 8 8h-6m6-6v3"/>
        </svg>
        <svg id="trending-up" fill="none" viewBox="0 0 24 24">
            <path stroke="#000" stroke-linecap="round" stroke-linejoin="round" stroke-width="1.5" d="m3 17 6-6 4 4 8-8v6m-6-6h3"/>
        </svg>
        <svg id="upload" fill="none" viewBox="0 0 24 24">
            <path stroke="#000" stroke-linecap="round" stroke-linejoin="round" stroke-width="1.5" d="M12 4a5 5 0 0 1 5 5v1a4 4 0 0 1 4 4c0 1.48-.804 2.808-2 3.5M7 10V9c0-1.126.372-2.164 1-3m-1 4a4 4 0 0 0-4 4c0 1.48.804 2.808 2 3.5M7 10a4 4 0 0 1 1.24.196M12 12v9m0-9 3 3m-3-3-3 3"/>
        </svg>
        <svg id="user" fill="none" viewBox="0 0 24 24">
            <path stroke="#000" stroke-linecap="round" stroke-linejoin="round" stroke-width="1.5" d="M8 15a4 4 0 0 0-4 4v2h16v-2a4 4 0 0 0-4-4h-4m0-12a4 4 0 1 0 3.465 2"/>
        </svg>
        <svg id="user-warning" fill="none" viewBox="0 0 24 24">
            <path stroke="#000" stroke-linecap="round" stroke-linejoin="round" stroke-width="1.5" d="M20 7v3.5m0 2.5v.01M8 15a4 4 0 0 0-4 4v2h16v-2a4 4 0 0 0-4-4h-4m0-12a4 4 0 1 0 3.465 2"/>
        </svg>
        <svg id="users" fill="none" viewBox="0 0 24 24">
            <path stroke="#000" stroke-linecap="round" stroke-linejoin="round" stroke-width="1.5" d="M3 19H1v-1a4 4 0 0 1 3-3.874m2-3.297a3.001 3.001 0 0 1 0-5.658M21 19h2v-1a4 4 0 0 0-3-3.874m-2-8.955a3.001 3.001 0 0 1 0 5.658M10 14h4a4 4 0 0 1 4 4v1H6v-1a4 4 0 0 1 4-4m5-6a3 3 0 1 1-6 0 3 3 0 0 1 6 0"/>
        </svg>
        <svg id="warning" fill="none" viewBox="0 0 24 24">
            <path stroke="#000" stroke-linecap="round" stroke-linejoin="round" stroke-width="1.5" d="M12 18.99V19m0-14v11"/>
        </svg>
    </defs>
</svg>
