<svg>
    <defs>
        <svg id="calendar" fill="none" viewBox="0 0 24 24">
            <path stroke="#000" stroke-linecap="round" stroke-width="1.5" d="M15 11H4m2-6a2 2 0 0 0-2 2v12a2 2 0 0 0 2 2h12a2 2 0 0 0 2-2V7a2 2 0 0 0-2-2h-3m0-2v4M9 3v4m0-2h3"/>
        </svg>
        <svg id="calendar-clock" fill="none" viewBox="0 0 24 24">
            <path stroke="#000" stroke-linecap="round" stroke-linejoin="round" stroke-width="1.5" d="M16 15.2v1.688l.9 1.012M9 11H4m5-8v4m6-4v4M9 5h3m3 0h3a2 2 0 0 1 2 2v2M6 5a2 2 0 0 0-2 2v12a2 2 0 0 0 2 2h3m11.5-4a4.5 4.5 0 1 1-9 0 4.5 4.5 0 0 1 9 0"/>
        </svg>
        <svg id="check" fill="none" viewBox="0 0 24 24">
            <path stroke="#000" stroke-linecap="round" stroke-linejoin="round" stroke-width="1.5" d="m20 7-8.5 8.5M4 13l5 5"/>
        </svg>
        <svg id="chevron-down" fill="none" viewBox="0 0 24 24">
            <path stroke="#000" stroke-linecap="round" stroke-linejoin="round" stroke-width="1.5" d="M9.5 12.5 7 10m10 0-5 5m9-3a9 9 0 1 1-18 0 9 9 0 0 1 18 0"/>
        </svg>
        <svg id="chevron-left" fill="none" viewBox="0 0 24 24">
            <path stroke="#000" stroke-linecap="round" stroke-linejoin="round" stroke-width="1.5" d="M11.5 9.5 14 7m0 10-5-5m12 0a9 9 0 1 1-18 0 9 9 0 0 1 18 0"/>
        </svg>
        <svg id="chevron-right" fill="none" viewBox="0 0 24 24">
            <path stroke="#000" stroke-linecap="round" stroke-linejoin="round" stroke-width="1.5" d="M12.5 9.5 10 7m0 10 5-5m6 0a9 9 0 1 1-18 0 9 9 0 0 1 18 0"/>
        </svg>
        <svg id="chevron-up" fill="none" viewBox="0 0 24 24">
            <path stroke="#000" stroke-linecap="round" stroke-linejoin="round" stroke-width="1.5" d="M9.5 11.5 7 14m10 0-5-5m9 3a9 9 0 1 1-18 0 9 9 0 0 1 18 0"/>
        </svg>
        <svg id="cross" fill="none" viewBox="0 0 24 24">
            <path stroke="#000" stroke-linecap="round" stroke-linejoin="round" stroke-width="1.5" d="M19 5 5 19M5 5l4.5 4.5M12 12l7 7"/>
        </svg>
        <svg id="cross-circle" fill="none" viewBox="0 0 24 24">
            <path stroke="#000" stroke-linecap="round" stroke-linejoin="round" stroke-width="1.5" d="m16 8-8 8m4-4 4 4M8 8l2 2m11 2a9 9 0 1 1-18 0 9 9 0 0 1 18 0"/>
        </svg>
        <svg id="eye-closed" fill="none" viewBox="0 0 24 24">
            <path stroke="#000" stroke-linecap="round" stroke-linejoin="round" stroke-width="1.5" d="M22 12s-.692 1.332-2 2.834M10 5.236A8.7 8.7 0 0 1 12 5c2.878 0 5.198 1.432 6.876 3M12 9a2.995 2.995 0 0 1 3 3M3 3l18 18m-9-6a3 3 0 0 1-2.959-2.5M4.147 9a17 17 0 0 0-.828 1C2.453 11.128 2 12 2 12s3.636 7 10 7q.512 0 1-.058"/>
        </svg>
        <svg id="eye-open" fill="none" viewBox="0 0 24 24">
            <path stroke="#000" stroke-linecap="round" stroke-linejoin="round" stroke-width="1.5" d="M22 12s-3.636 7-10 7-10-7-10-7 3.636-7 10-7c2.878 0 5.198 1.432 6.876 3M9 12a3 3 0 1 0 3-3"/>
        </svg>
        <svg id="globe" fill="none" viewBox="0 0 24 24">
            <path stroke="#000" stroke-linecap="round" stroke-width="1.5" d="M21 12a9 9 0 0 1-9 9m9-9a9 9 0 0 0-9-9m9 9H3a9 9 0 0 0 9 9m0 0s4-3 4-9m-4 9s-4-3-4-9 4-9 4-9m0 0a8.98 8.98 0 0 0-6.708 3M12 3s2.222 1.667 3.354 5"/>
        </svg>
        <svg id="home" fill="none" viewBox="0 0 24 24">
            <path stroke="#000" stroke-linecap="round" stroke-linejoin="round" stroke-width="1.5" d="M15 16a3 3 0 0 0-6 0v4H4V10l4-3.5M12 3l8 7v10h-5"/>
        </svg>
        <svg id="hourglass" fill="none" viewBox="0 0 24 24">
            <path stroke="#000" stroke-linecap="round" stroke-linejoin="round" stroke-width="1.5" d="M17 17.106a2 2 0 0 0-.336-1.11L14.74 13.11a2 2 0 0 1 0-2.218l1.924-2.887A2 2 0 0 0 17 6.894V4m0 0h2m-2 0H5m2 2.894a2 2 0 0 0 .336 1.11L9.26 10.89a2 2 0 0 1 0 2.218l-1.924 2.887A2 2 0 0 0 7 17.106V20m0 0H5m2 0h12"/>
        </svg>
        <svg id="lines" fill="none" viewBox="0 0 24 24">
            <path stroke="#000" stroke-linecap="round" stroke-linejoin="round" stroke-width="1.5" d="M17 20.5h3.5v-7h-17v7H12m-6-17H3.5v7h17v-7H11"/>
        </svg>
        <svg id="lock" fill="none" viewBox="0 0 24 24">
            <path stroke="#000" stroke-linecap="round" stroke-linejoin="round" stroke-width="1.5" d="M8 11V7c0-1.333.8-4 4-4s4 2.667 4 4v4m-8 0H5v10h7M8 11h8m0 0h3v10h-2"/>
        </svg>
        <svg id="login" fill="none" viewBox="0 0 24 24">
            <path stroke="#000" stroke-linecap="round" stroke-linejoin="round" stroke-width="1.5" d="M15 20h3a2 2 0 0 0 2-2M15 4h3a2 2 0 0 1 2 2v8m-9 2 4-4H3m8-4 1 1"/>
        </svg>
        <svg id="logout" fill="none" viewBox="0 0 24 24">
            <path stroke="#000" stroke-linecap="round" stroke-linejoin="round" stroke-width="1.5" d="M15 20h3a2 2 0 0 0 2-2M15 4h3a2 2 0 0 1 2 2v8M7 8l-4 4h12m-8 4-1-1"/>
        </svg>
        <svg id="mail" fill="none" viewBox="0 0 24 24">
            <path stroke="#000" stroke-linecap="round" stroke-linejoin="round" stroke-width="1.5" d="M3.293 5.293A1 1 0 0 1 4 5h16c.276 0 .526.112.707.293m-17.414 0A1 1 0 0 0 3 6v12a1 1 0 0 0 1 1h10M3.293 5.293 5 7m15.707-1.707A1 1 0 0 1 21 6v12a1 1 0 0 1-1 1h-2m2.707-13.707-7.293 7.293a2 2 0 0 1-2.828 0L8 10"/>
        </svg>
        <svg id="pencil" fill="none" viewBox="0 0 24 24">
            <path stroke="#000" stroke-linecap="round" stroke-linejoin="round" stroke-width="1.5" d="M12 20h8.5M18 10l-4-4m4 4 3-3-4-4-3 3m4 4-1 1m-3-5-6.5 6.5M5 15l-1 1v4h4l6-6"/>
        </svg>
        <svg id="piles" fill="none" viewBox="0 0 24 24">
            <path stroke="#000" stroke-linecap="round" stroke-linejoin="round" stroke-width="1.5" d="M5 13.5H3.5v7h7v-7H9M13.5 5V3.5h7v7h-7V9m-10-5.5h7v7h-7zm10 10h7v7h-7z"/>
        </svg>
        <svg id="refresh" fill="none" viewBox="0 0 24 24">
            <path stroke="#000" stroke-linecap="round" stroke-linejoin="round" stroke-width="1.5" d="M3 3v6m0 0h6M3 9c2.327-2.089 4.483-4.453 7.745-4.912a9 9 0 0 1 9.469 5.234M21 21v-6m0 0h-6m6 0c-2.328 2.089-4.483 4.453-7.745 4.912a9 9 0 0 1-9.469-5.234"/>
        </svg>
        <svg id="search" fill="none" viewBox="0 0 24 24">
            <path stroke="#000" stroke-linecap="round" stroke-linejoin="round" stroke-width="1.5" d="m20 20-4.197-4.197S14 18 10.5 18a7.5 7.5 0 1 1 7.35-6"/>
        </svg>
        <svg id="stopwatch" fill="none" viewBox="0 0 24 24">
            <path stroke="#000" stroke-linecap="round" stroke-linejoin="round" stroke-width="1.5" d="M10 3h4m-2 6v4l2 2m-2 6a8 8 0 1 0-5.292-2"/>
        </svg>
        <svg id="users" fill="none" viewBox="0 0 24 24">
            <path stroke="#000" stroke-linecap="round" stroke-linejoin="round" stroke-width="1.5" d="M3 19H1v-1a4 4 0 0 1 3-3.874m2-3.297a3.001 3.001 0 0 1 0-5.658M21 19h2v-1a4 4 0 0 0-3-3.874m-2-8.955a3.001 3.001 0 0 1 0 5.658M10 14h4a4 4 0 0 1 4 4v1H6v-1a4 4 0 0 1 4-4m5-6a3 3 0 1 1-6 0 3 3 0 0 1 6 0"/>
        </svg>
        <svg id="warning" fill="none" viewBox="0 0 24 24">
            <path stroke="#000" stroke-linecap="round" stroke-linejoin="round" stroke-width="1.5" d="M12 18.99V19m0-14v11"/>
        </svg>
    </defs>
</svg>
