<svg>
    <defs>
        <svg id="check" fill="none" viewBox="0 0 24 24">
            <path stroke="#000" stroke-linecap="round" stroke-linejoin="round" stroke-width="1.5" d="m20 7-8.5 8.5M4 13l5 5"/>
        </svg>
        <svg id="cross" fill="none" viewBox="0 0 24 24">
            <path stroke="#000" stroke-linecap="round" stroke-linejoin="round" stroke-width="1.5" d="M19 5 5 19M5 5l4.5 4.5M12 12l7 7"/>
        </svg>
        <svg id="globe" fill="none" viewBox="0 0 24 24">
            <path stroke="#000" stroke-linecap="round" stroke-width="1.5" d="M21 12a9 9 0 0 1-9 9m9-9a9 9 0 0 0-9-9m9 9H3a9 9 0 0 0 9 9m0 0s4-3 4-9m-4 9s-4-3-4-9 4-9 4-9m0 0a8.98 8.98 0 0 0-6.708 3M12 3s2.222 1.667 3.354 5"/>
        </svg>
        <svg id="refresh" fill="none" viewBox="0 0 24 24">
            <path stroke="#000" stroke-linecap="round" stroke-linejoin="round" stroke-width="1.5" d="M3 3v6m0 0h6M3 9c2.327-2.089 4.483-4.453 7.745-4.912a9 9 0 0 1 9.469 5.234M21 21v-6m0 0h-6m6 0c-2.328 2.089-4.483 4.453-7.745 4.912a9 9 0 0 1-9.469-5.234"/>
        </svg>
        <svg id="users" fill="none" viewBox="0 0 24 24">
            <path stroke="#000" stroke-linecap="round" stroke-linejoin="round" stroke-width="1.5" d="M3 19H1v-1a4 4 0 0 1 3-3.874m2-3.297a3.001 3.001 0 0 1 0-5.658M21 19h2v-1a4 4 0 0 0-3-3.874m-2-8.955a3.001 3.001 0 0 1 0 5.658M10 14h4a4 4 0 0 1 4 4v1H6v-1a4 4 0 0 1 4-4m5-6a3 3 0 1 1-6 0 3 3 0 0 1 6 0"/>
        </svg>
    </defs>
</svg>
